<?xml version="1.0" standalone="no"?>
<!DOCTYPE svg PUBLIC "-//W3C//DTD SVG 20010904//EN"
 "http://www.w3.org/TR/2001/REC-SVG-20010904/DTD/svg10.dtd">
<svg version="1.0" xmlns="http://www.w3.org/2000/svg"
 width="612.000000pt" height="573.000000pt"
 preserveAspectRatio="xMidYMid meet">

<g transform="translate(0.000000,573.000000) scale(0.100000,-0.100000)"
fill="#000000" stroke="none">
<path d="M2985 5505 c-51 -50 -15 -135 58 -135 44 0 77 34 77 81 0 72 -84 106
-135 54z m85 5 c0 -15 -14 -19 -27 -9 -10 9 -13 8 -13 0 0 -7 -4 -9 -10 -6
-18 11 -10 20 20 21 17 1 30 -2 30 -6z m-56 -17 c12 -12 40 -12 54 -1 19 16
35 -4 35 -43 0 -31 -33 -69 -57 -65 -34 6 -54 19 -66 41 -11 21 -11 29 0 50
14 26 22 30 34 18z"/>
<path d="M3036 5404 c-5 -14 -4 -15 9 -4 17 14 19 20 6 20 -5 0 -12 -7 -15
-16z"/>
<path d="M3510 5040 l0 -329 283 -3 c155 -2 408 -1 562 2 l280 5 0 328 0 327
-562 0 -563 0 0 -330z"/>
<path d="M4875 5108 c-3 -7 -4 -164 -3 -348 l3 -335 347 -3 348 -2 5 22 c3 13
5 169 3 348 l-3 325 -348 3 c-274 2 -349 0 -352 -10z m415 -194 c0 -20 -95
-314 -102 -314 -4 0 -8 7 -8 16 0 12 41 153 85 292 4 12 25 17 25 6z m-194
-95 l-36 -43 37 -38 c25 -26 34 -41 27 -48 -7 -7 -26 6 -58 40 l-47 50 47 50
c59 63 85 53 30 -11z m334 -29 c12 -22 -75 -119 -92 -102 -9 9 -4 20 26 51
l38 39 -37 41 c-49 54 -35 75 17 24 22 -21 43 -45 48 -53z"/>
<path d="M2422 5008 c-22 -22 -14 -57 13 -64 45 -11 71 29 39 60 -19 19 -36
20 -52 4z m22 -10 c-5 -7 -2 -9 9 -5 23 8 30 -21 8 -33 -26 -13 -49 13 -31 35
15 18 24 20 14 3z"/>
<path d="M1333 4902 c-208 -2 -273 -5 -274 -15 0 -6 -1 -93 -2 -192 l-2 -180
-322 -3 -323 -2 0 -815 0 -815 550 0 550 0 0 -29 c0 -62 2 -61 -167 -61 l-154
0 3 -62 3 -63 88 -3 87 -3 0 -104 0 -105 -387 0 -388 0 2 -507 c3 -427 1 -515
-12 -552 -8 -24 -12 -48 -8 -54 3 -5 1 -7 -4 -4 -17 10 -119 -244 -109 -270 3
-8 2 -12 -3 -9 -13 8 -73 -196 -131 -445 -24 -105 -70 -349 -70 -373 0 -3 389
-6 865 -6 l865 0 0 309 0 309 48 41 c26 23 53 41 60 41 9 0 12 -75 12 -344 0
-320 -1 -345 -17 -349 -10 -3 214 -5 497 -6 l515 -1 -2 337 c-1 294 0 327 11
252 6 -47 17 -93 24 -102 8 -9 33 -23 57 -33 l44 -16 5 -62 c3 -33 8 -131 12
-216 3 -85 8 -157 10 -159 14 -14 509 -18 1489 -14 611 3 1111 6 1112 7 1 1
-6 51 -16 112 -10 60 -19 100 -20 89 0 -11 5 -57 13 -102 7 -45 11 -85 8 -88
-3 -3 -153 -5 -334 -5 l-328 0 0 937 0 938 33 -39 c17 -22 44 -59 58 -83 14
-24 29 -40 34 -36 4 5 5 0 2 -10 -4 -10 -3 -16 2 -13 16 10 116 -168 104 -187
-3 -5 -2 -8 3 -4 5 3 18 -14 28 -36 10 -23 31 -69 46 -102 16 -33 40 -91 54
-130 13 -38 34 -93 44 -122 11 -28 17 -55 14 -58 -4 -3 0 -10 7 -14 7 -5 13
-24 14 -44 0 -20 5 -34 9 -31 4 3 8 -9 8 -25 0 -17 5 -31 11 -31 7 0 9 -10 5
-26 -4 -15 -3 -23 2 -20 12 7 36 -78 28 -99 -3 -9 -2 -14 2 -11 11 7 34 -92
25 -106 -4 -7 -1 -8 7 -3 10 6 12 2 7 -15 -4 -15 -3 -20 4 -13 7 7 3 35 -11
84 -19 70 -20 100 -20 651 l0 577 -132 3 -133 3 -3 583 -2 582 -54 0 c-30 0
-61 2 -69 5 -9 4 -24 -13 -46 -54 -17 -33 -37 -62 -44 -65 -9 -5 -9 -7 1 -12
6 -3 12 -12 12 -20 0 -12 -38 -14 -225 -14 -193 0 -225 2 -225 15 0 8 5 15 11
15 5 0 -6 17 -25 38 -54 56 -98 162 -67 162 8 0 68 -102 105 -177 10 -20 26
-31 26 -18 0 2 -16 30 -36 61 -79 123 -104 215 -68 251 13 14 19 14 41 2 33
-17 102 -110 155 -206 22 -40 45 -73 51 -73 9 0 9 2 1 8 -6 4 -15 18 -19 32
-4 14 -11 27 -14 30 -4 3 -22 29 -39 58 -29 48 -32 59 -26 99 4 29 3 44 -3 40
-6 -4 -16 13 -23 36 -7 23 -23 62 -37 87 -27 50 -25 44 22 -79 37 -95 36 -130
-1 -84 -13 15 -23 40 -24 54 0 14 -10 53 -21 88 -18 53 -19 65 -8 72 22 14 24
12 49 -41 13 -27 32 -57 42 -67 12 -11 16 -23 12 -37 -6 -19 -5 -19 13 3 l20
24 11 -71 c7 -39 12 -91 12 -116 0 -25 4 -47 8 -50 8 -5 0 115 -13 192 -14 79
35 39 66 -55 12 -34 18 -44 14 -24 -3 18 -6 79 -7 135 l-2 101 -5 -85 c-6 -82
-6 -83 -20 -55 -8 17 -13 37 -12 45 1 10 -1 11 -6 4 -12 -17 -73 -26 -73 -11
1 6 36 154 79 327 l79 315 -206 6 c-114 3 -334 7 -489 8 l-283 1 -3 178 -2
177 -3 -177 -2 -178 -238 0 -238 0 -42 -162 c-43 -163 -47 -179 -58 -230 -5
-27 -7 -28 -75 -28 l-69 0 -3 158 -3 157 1 -160 0 -160 73 -3 c39 -2 72 -5 72
-8 0 -3 -29 -121 -66 -262 -36 -141 -67 -268 -70 -282 -3 -14 -12 -47 -20 -74
-26 -91 -37 -85 160 -85 l174 1 119 -45 c65 -25 138 -50 163 -57 44 -12 44
-12 22 -28 -12 -10 -57 -38 -99 -64 l-78 -47 -225 -1 c-124 -1 -230 -1 -236
-1 -7 1 -19 19 -28 41 -9 22 -19 40 -24 40 -4 0 -32 21 -61 47 l-54 47 7 -54
c3 -30 9 -83 13 -117 l6 -63 -75 0 -74 0 -18 40 c-22 50 -75 95 -144 120 -66
25 -103 25 -43 1 79 -32 114 -80 65 -90 -10 -2 -24 -10 -30 -19 -7 -9 -18 -13
-28 -9 -11 5 -15 3 -10 -4 5 -8 -5 -10 -32 -5 -78 12 -195 18 -193 10 8 -43 4
-44 -128 -43 -87 1 -120 4 -103 10 20 7 18 7 -10 3 -19 -3 -177 -8 -352 -10
-312 -5 -316 -5 -336 16 -51 54 -30 188 59 378 27 57 49 92 59 92 9 0 11 3 4
8 -25 17 211 415 297 500 24 23 40 42 35 42 -11 0 -92 -89 -128 -142 -18 -26
-36 -48 -40 -48 -4 0 -30 -13 -58 -30 l-50 -30 -457 0 c-251 0 -458 -2 -460
-4 -3 -2 -2 -13 1 -23 5 -17 27 -18 432 -15 381 2 425 1 414 -13 -11 -13 -82
-15 -560 -15 -300 0 -549 -3 -552 -6 -3 -3 -4 -14 -1 -25 5 -18 19 -19 529
-19 459 0 523 -2 518 -15 -5 -13 -61 -15 -393 -17 -378 -3 -386 -3 -386 -23 0
-20 6 -20 368 -17 203 1 367 -1 365 -5 -21 -48 -61 -115 -71 -118 -7 -3 -156
-6 -332 -7 l-320 -3 -3 -22 -3 -23 321 0 c253 0 321 -3 318 -12 -4 -10 -79
-14 -320 -16 -277 -2 -317 -4 -322 -18 -3 -9 -4 -20 0 -25 3 -5 138 -9 310 -9
178 0 304 -4 304 -9 0 -5 -9 -49 -20 -98 -11 -48 -23 -98 -25 -110 l-5 -23
-545 0 -545 0 0 730 0 730 315 0 315 0 0 -54 c0 -52 1 -55 28 -58 15 -2 269
-2 565 0 l537 2 0 55 c0 48 2 55 20 55 19 0 20 -7 20 -239 l0 -239 -35 -12
c-19 -6 -35 -15 -35 -20 0 -5 12 -2 28 6 15 7 33 14 40 14 9 0 12 72 12 325
l0 325 -25 0 -25 0 0 195 0 194 -287 3 c-159 2 -411 2 -560 0z m-70 -303 c-5
-19 -4 -20 16 -9 13 6 25 9 28 6 9 -9 -8 -26 -27 -26 -10 0 -28 -12 -39 -27
-11 -16 -21 -23 -21 -16 0 6 5 15 10 18 15 9 12 25 -4 25 -16 0 -31 18 -23 26
3 3 15 0 28 -6 20 -11 21 -10 16 9 -3 13 0 21 8 21 8 0 11 -8 8 -21z m170 0
c-5 -19 -4 -20 16 -9 13 6 25 9 28 6 8 -8 -7 -26 -23 -26 -17 0 -18 -12 -3
-27 7 -7 7 -13 1 -17 -6 -3 -14 4 -17 16 l-7 21 -19 -24 c-10 -13 -19 -19 -19
-12 0 6 5 15 10 18 15 9 12 25 -4 25 -16 0 -31 18 -23 26 3 3 15 0 28 -6 20
-11 21 -10 16 9 -3 13 0 21 8 21 8 0 11 -8 8 -21z m177 5 c0 -11 6 -14 20 -9
14 4 20 2 20 -8 0 -18 -46 -28 -77 -16 -28 11 -31 33 -3 24 14 -5 20 -2 20 9
0 9 5 16 10 16 6 0 10 -7 10 -16z m195 -4 c-6 -18 -4 -19 19 -10 21 7 26 6 26
-5 0 -8 -9 -15 -20 -15 -21 0 -27 -15 -10 -25 6 -3 10 -12 10 -18 -1 -7 -9 -2
-19 10 l-19 23 -15 -23 c-9 -12 -16 -17 -16 -10 -1 6 4 15 9 18 15 9 12 25 -4
25 -16 0 -31 18 -23 26 3 3 15 1 26 -6 18 -9 21 -8 21 10 0 11 5 20 11 20 6 0
8 -9 4 -20z m175 0 c0 -17 3 -19 19 -11 10 6 21 8 24 4 10 -10 -3 -23 -23 -23
-11 0 -27 -11 -36 -25 -20 -30 -31 -26 -14 4 9 17 8 21 -4 21 -16 0 -31 18
-23 26 3 3 15 0 27 -6 20 -11 21 -10 15 9 -4 12 -2 21 4 21 6 0 11 -9 11 -20z
m-696 -72 c-4 -6 -10 -5 -15 3 -14 22 -10 33 6 19 8 -7 12 -17 9 -22z m300 8
c-3 -9 -10 -16 -15 -16 -6 0 -5 9 1 21 13 24 24 20 14 -5z m50 -7 c-8 -13 -24
-1 -24 18 0 13 3 13 15 3 8 -7 12 -16 9 -21z m370 -1 c-4 -6 -10 -5 -15 3 -14
22 -10 33 6 19 8 -7 12 -17 9 -22z m-561 -1295 c-90 -2 -236 -2 -325 0 -90 1
-17 3 162 3 179 0 252 -2 163 -3z m3509 -188 c4 -60 9 -140 11 -177 l4 -68
-43 0 c-41 0 -43 2 -48 33 -7 40 -46 317 -46 323 0 3 26 4 58 2 l57 -3 7 -110z
m114 44 c-3 -39 -8 -119 -11 -177 -4 -102 -4 -104 4 -27 5 44 12 124 16 178
l7 97 59 0 c32 0 59 -1 59 -3 0 -6 -40 -295 -45 -324 l-6 -33 -84 0 c-100 0
-91 -18 -101 208 l-7 152 58 0 58 0 -7 -71z m-246 31 c0 -10 -4 -22 -10 -25
-5 -3 -9 -14 -9 -23 1 -15 2 -15 6 1 2 9 9 17 13 17 11 0 1 -61 -11 -74 -17
-19 -9 -27 9 -10 16 17 17 15 24 -42 12 -99 17 -170 11 -156 -2 6 -9 12 -14
12 -6 0 -7 -4 -4 -10 3 -5 1 -10 -4 -10 -6 0 -11 10 -12 23 0 12 -3 16 -6 10
-6 -16 -89 -18 -96 -3 -3 6 -4 5 -3 -2 1 -7 24 -16 52 -19 l49 -6 -58 -1 c-53
-2 -58 0 -67 23 -9 25 -12 25 -116 25 l-107 0 -38 41 c-22 24 -40 36 -44 30
-3 -6 -11 -11 -16 -11 -6 0 -7 5 -4 11 4 6 1 10 -6 8 -28 -3 -50 1 -45 10 3 5
-5 9 -18 9 -29 0 -78 31 -73 46 3 6 10 10 16 8 7 -1 10 2 6 8 -3 6 -10 8 -15
5 -4 -3 -3 13 2 35 l10 40 273 0 273 0 6 31 c6 32 26 31 26 -1z m420 22 c0 -4
-5 -13 -12 -20 -9 -9 -9 -12 0 -12 9 0 12 -38 12 -139 0 -77 -3 -146 -6 -155
-4 -10 -18 -16 -36 -16 -30 0 -31 0 -23 43 4 23 8 54 9 69 0 14 4 24 8 22 4
-3 6 10 4 28 -4 31 9 149 19 176 5 13 25 17 25 4z m-1240 -65 c0 -8 4 -6 11 3
8 11 9 5 4 -25 -4 -22 -14 -47 -22 -55 -12 -12 -14 -12 -8 -1 6 11 4 13 -8 8
-17 -6 -167 41 -178 56 -3 5 -12 7 -20 6 -8 -1 -25 3 -39 8 -19 8 10 11 118
11 104 1 142 -2 142 -11z m409 -200 c34 -21 35 -22 12 -25 -15 -2 -43 10 -77
33 -30 21 -54 39 -54 41 0 7 85 -27 119 -49z m-4 33 c3 -5 1 -10 -4 -10 -6 0
-11 5 -11 10 0 6 2 10 4 10 3 0 8 -4 11 -10z m-1155 -257 c1 -10 75 -88 154
-163 32 -30 53 -46 47 -35 -11 18 -62 198 -58 202 7 6 1167 -12 1167 -19 0 -4
-199 -9 -442 -10 l-443 -3 443 -2 442 -3 0 -126 c0 -139 -5 -152 -58 -148 -17
1 -30 -2 -27 -6 3 -4 15 -6 28 -4 12 2 9 -1 -8 -7 -16 -6 -44 -17 -62 -25 -17
-8 -36 -14 -42 -14 -6 0 -11 -4 -11 -8 0 -4 -14 -8 -32 -7 -18 0 -32 -6 -34
-13 -1 -7 0 -8 3 -2 2 5 9 7 14 4 11 -7 -8 -34 -24 -34 -5 0 -18 -9 -28 -21
-10 -11 -23 -18 -29 -14 -6 3 -9 1 -8 -6 2 -9 -46 -12 -209 -13 -117 -1 -213
1 -213 4 0 4 4 10 10 16 6 6 3 10 -10 11 -11 1 -22 -2 -25 -8 -4 -5 2 -6 12
-2 15 6 16 5 3 -9 -10 -11 -17 -12 -26 -4 -7 6 -10 14 -7 19 2 4 -1 6 -9 5 -8
-2 -13 9 -13 36 0 24 -5 40 -13 42 -8 2 -8 1 -1 -3 8 -4 7 -8 -2 -14 -12 -8
-12 -11 1 -18 8 -6 11 -14 6 -18 -4 -4 -23 9 -41 29 -18 20 -35 34 -38 32 -2
-2 -21 7 -43 21 -30 20 -27 15 16 -22 197 -171 247 -241 308 -434 68 -213 142
-660 170 -1032 l8 -97 -38 -11 c-68 -18 -383 -8 -402 12 -2 2 -8 47 -14 99
l-10 95 5 -101 5 -101 -44 -16 c-131 -50 -269 -60 -383 -27 -111 32 -111 33
-129 250 -20 238 -33 355 -57 510 -19 124 -54 256 -70 266 -5 3 -9 -117 -9
-265 0 -210 -3 -271 -12 -272 -10 0 -10 -2 0 -6 8 -3 12 -27 12 -68 0 -58 -2
-64 -22 -67 -12 -2 -32 -18 -44 -36 -20 -30 -24 -31 -33 -15 -14 24 -14 7 0
-19 11 -20 12 -19 33 18 13 24 30 40 44 42 l22 3 0 -335 0 -336 -375 0 -375 0
2 337 3 338 105 42 c115 46 240 79 352 92 44 5 58 9 36 10 l-38 1 0 315 0 315
114 0 c112 0 115 -1 135 -26 12 -15 21 -22 21 -16 0 19 -94 95 -150 119 -30
14 -134 45 -230 69 -96 25 -194 54 -216 65 -139 67 -210 230 -221 507 l-6 142
557 0 c306 0 556 -3 556 -7z m1981 -10 c10 -11 10 -14 2 -9 -7 4 -13 2 -13 -3
0 -6 5 -11 10 -11 6 0 10 -80 10 -221 0 -144 -3 -218 -10 -214 -5 3 -10 2 -10
-4 0 -6 -6 -8 -14 -5 -12 5 -15 45 -16 225 0 144 3 219 10 219 5 0 10 5 10 11
0 5 -6 7 -12 3 -9 -5 -9 -2 1 9 7 9 15 17 16 17 1 0 9 -8 16 -17z m-3871 -213
c0 -6 -89 -11 -242 -12 l-243 -3 243 -2 242 -3 0 -185 c0 -141 -3 -185 -12
-186 -10 0 -10 -2 0 -6 30 -12 7 -21 -53 -21 -36 0 -63 3 -61 7 2 3 -22 6 -55
6 -37 0 -53 -3 -43 -8 9 -5 25 -6 37 -3 12 3 28 1 36 -3 12 -8 -17 -16 -85
-24 -11 -1 -28 -8 -37 -15 -9 -7 -27 -11 -44 -7 -23 4 -24 4 -8 -4 11 -5 15
-10 8 -10 -6 -1 -48 -28 -91 -61 -44 -33 -83 -60 -86 -60 -3 0 -6 124 -6 275
0 213 3 275 13 276 10 0 10 2 0 6 -7 2 -13 13 -13 23 0 10 6 21 13 23 24 10
487 7 487 -3z m3200 -606 l0 -494 -30 0 c-16 0 -40 -5 -54 -11 -20 -10 -29 -9
-43 2 -9 8 -14 9 -10 3 4 -7 0 -17 -8 -24 -8 -7 -12 -16 -9 -21 3 -5 0 -18 -6
-29 -10 -18 -14 -19 -27 -8 -15 12 -15 11 -4 -9 9 -18 9 -23 0 -23 -7 0 -9 -3
-6 -7 4 -3 2 -12 -4 -19 -8 -10 -6 -13 9 -11 10 0 19 6 19 12 0 12 42 76 57
87 6 4 4 14 -5 25 -13 16 -12 17 3 5 14 -11 22 -11 47 2 19 10 37 13 51 8 l21
-8 0 -534 -1 -535 -51 -3 c-44 -3 -54 0 -74 22 -13 15 -21 26 -17 27 4 0 -1 3
-10 7 -30 13 -178 154 -171 165 3 5 2 7 -3 4 -14 -8 -77 50 -69 63 4 6 3 10
-2 9 -23 -4 -32 2 -26 18 5 12 3 14 -7 8 -10 -6 -12 -4 -7 9 4 10 3 15 -3 11
-5 -3 -14 4 -20 16 -10 17 -9 20 2 13 7 -4 5 1 -4 12 -10 11 -19 35 -20 54 -3
31 0 34 33 43 36 8 36 9 29 45 -12 55 -31 312 -25 323 4 5 2 9 -2 9 -5 0 -17
66 -27 148 -25 193 -21 171 -46 297 -12 61 -23 119 -25 130 -2 11 -10 44 -19
73 -8 29 -13 64 -10 76 5 28 73 136 85 136 5 0 8 6 7 13 -2 6 3 11 10 9 6 -1
11 1 11 5 -3 21 2 26 12 13 8 -12 9 -11 5 6 -5 16 17 42 105 128 80 77 117
106 130 103 10 -3 17 -1 16 5 -3 14 101 70 116 62 7 -4 8 -3 4 2 -9 9 53 34
66 27 4 -2 7 -227 7 -499z m-3540 72 c0 -2 -7 -7 -16 -10 -8 -3 -12 -2 -9 4 6
10 25 14 25 6z m1074 -152 c3 -26 5 -151 4 -278 0 -127 -4 -208 -7 -181 -5 41
-9 49 -24 47 -16 -3 -17 0 -6 20 9 19 9 21 -2 11 -10 -10 -16 -8 -30 14 -10
14 -15 31 -13 38 3 6 -2 17 -10 24 -11 9 -14 43 -15 151 l-2 140 48 2 48 1
-42 4 c-25 3 -44 10 -47 19 -10 25 3 34 48 34 l43 0 7 -46z m569 40 c13 -5 15
-47 14 -307 l-1 -302 -6 280 -5 280 -5 -285 -5 -285 -5 285 -5 285 -207 3
c-193 2 -208 4 -208 21 0 10 3 21 7 24 8 8 405 9 426 1z m-23 -338 l0 -284
-57 -7 c-32 -3 -77 -13 -100 -20 -23 -8 -52 -16 -65 -19 -13 -2 -59 -20 -102
-40 -43 -20 -81 -34 -84 -31 -3 3 -1 5 4 5 6 0 19 7 30 16 18 15 18 15 -3 5
-14 -7 -24 -8 -28 -1 -3 5 0 10 7 11 10 0 10 2 1 6 -10 4 -13 78 -13 324 l0
319 205 0 205 0 0 -284z m-1755 104 c-3 -4 0 -11 5 -13 6 -3 5 -4 -1 -3 -7 1
-13 10 -15 19 -1 9 2 15 7 11 5 -3 7 -9 4 -14z m-178 -12 c-3 -8 -6 -5 -6 6
-1 11 2 17 5 13 3 -3 4 -12 1 -19z m464 -15 c13 -17 13 -17 -6 -3 -11 8 -22
16 -24 17 -2 2 0 3 6 3 6 0 17 -8 24 -17z m-81 -2 c0 -5 -7 -12 -16 -15 -14
-5 -15 -4 -4 9 14 17 20 19 20 6z m35 -11 c-3 -5 -12 -10 -18 -10 -7 0 -6 4 3
10 19 12 23 12 15 0z m-324 -63 c-10 -9 -11 -8 -5 6 3 10 9 15 12 12 3 -3 0
-11 -7 -18z m430 -24 c-12 -20 -14 -14 -5 12 4 9 9 14 11 11 3 -2 0 -13 -6
-23z m-601 -17 c0 -3 -4 -8 -10 -11 -5 -3 -10 -1 -10 4 0 6 5 11 10 11 6 0 10
-2 10 -4z m1450 -103 c-1 -24 -2 -26 -11 -10 -5 9 -7 22 -4 27 10 17 15 11 15
-17z m-1533 -175 c-3 -8 -6 -5 -6 6 -1 11 2 17 5 13 3 -3 4 -12 1 -19z m408
-48 c3 -6 -1 -7 -9 -4 -18 7 -21 14 -7 14 6 0 13 -4 16 -10z m-160 -60 c-3 -5
-12 -10 -18 -10 -7 0 -6 4 3 10 19 12 23 12 15 0z m1296 -63 c-10 -9 -11 -8
-5 6 3 10 9 15 12 12 3 -3 0 -11 -7 -18z m-884 -87 c-1 -10 -3 -17 -6 -15 -2
3 -10 0 -18 -6 -19 -16 -16 -2 5 20 22 25 21 24 19 1z m2530 -245 c1 -44 3
-106 6 -137 l4 -57 -44 42 c-70 65 -103 119 -103 167 0 34 4 42 26 50 14 6 30
7 36 4 7 -5 8 -2 4 5 -6 9 2 11 30 9 l39 -3 2 -80z m-148 28 c0 -25 -1 -26 -9
-8 -12 27 -12 35 0 35 6 0 10 -12 9 -27z m-3221 -18 c-3 -3 -9 2 -12 12 -6 14
-5 15 5 6 7 -7 10 -15 7 -18z m397 -123 c-3 -3 -11 0 -18 7 -9 10 -8 11 6 5
10 -3 15 -9 12 -12z m-175 -8 c0 -8 -19 -13 -24 -6 -3 5 1 9 9 9 8 0 15 -2 15
-3z m62 -1 c-6 -2 -9 -10 -6 -15 4 -7 2 -8 -5 -4 -13 9 -5 26 12 25 9 0 8 -2
-1 -6z m-177 -42 c-3 -6 -11 -11 -16 -11 -5 0 -4 6 3 14 14 16 24 13 13 -3z
m155 5 c0 -2 -7 -7 -16 -10 -8 -3 -12 -2 -9 4 6 10 25 14 25 6z"/>
<path d="M4280 3000 c-13 -8 -13 -10 2 -10 9 0 20 5 23 10 8 13 -5 13 -25 0z"/>
<path d="M4810 2954 c0 -10 5 -26 10 -34 8 -11 9 -7 4 15 -8 37 -14 45 -14 19z"/>
<path d="M4432 2916 c10 -7 15 -16 11 -19 -3 -4 1 -7 9 -7 9 0 18 7 21 14 4
10 1 13 -7 10 -8 -3 -17 -1 -21 5 -3 6 -12 11 -18 11 -7 0 -4 -6 5 -14z"/>
<path d="M4832 2850 c0 -14 2 -19 5 -12 2 6 2 18 0 25 -3 6 -5 1 -5 -13z"/>
<path d="M3870 3073 c8 -3 19 -11 23 -17 6 -7 7 -6 4 4 -2 8 -12 16 -23 17
-13 2 -15 1 -4 -4z"/>
<path d="M3838 3058 c5 -5 16 -8 23 -6 8 3 3 7 -10 11 -17 4 -21 3 -13 -5z"/>
<path d="M3650 2479 c1 -112 5 -169 12 -167 16 6 17 338 0 338 -10 0 -12 -38
-12 -171z"/>
<path d="M2930 2447 c0 -3 21 -18 48 -33 88 -52 239 -172 293 -236 120 -139
167 -214 216 -353 32 -91 44 -107 19 -25 -56 181 -149 322 -307 464 -90 81
-269 203 -269 183z"/>
<path d="M3470 2436 c0 -2 8 -10 18 -17 15 -13 16 -12 3 4 -13 16 -21 21 -21
13z"/>
<path d="M3521 2387 c2 -1 13 -9 24 -17 19 -14 19 -14 6 3 -7 9 -18 17 -24 17
-6 0 -8 -1 -6 -3z"/>
<path d="M4428 2363 c6 -2 18 -2 25 0 6 3 1 5 -13 5 -14 0 -19 -2 -12 -5z"/>
<path d="M4429 2341 c11 -7 11 -9 0 -13 -8 -3 -11 -9 -7 -13 4 -4 14 -1 22 8
14 13 14 16 0 21 -23 9 -31 7 -15 -3z"/>
<path d="M4240 2270 c0 -5 5 -10 10 -10 6 0 10 5 10 10 0 6 -4 10 -10 10 -5 0
-10 -4 -10 -10z"/>
<path d="M4255 2230 c3 -5 8 -10 11 -10 2 0 4 5 4 10 0 6 -5 10 -11 10 -5 0
-7 -4 -4 -10z"/>
<path d="M3521 1725 c0 -5 6 -39 15 -75 29 -120 73 -377 95 -547 20 -163 29
-207 29 -147 -1 117 -135 858 -139 769z"/>
<path d="M2756 999 c-14 -17 -26 -36 -26 -42 0 -6 11 5 25 26 27 39 49 45 88
26 21 -10 21 -10 3 5 -30 24 -62 19 -90 -15z"/>
<path d="M2561 726 c2 -2 22 -6 44 -9 28 -5 34 -4 20 3 -19 8 -73 14 -64 6z"/>
<path d="M2501 694 c-18 -14 -36 -36 -42 -48 -9 -18 -7 -18 13 4 13 14 36 35
52 48 16 12 24 22 18 22 -6 0 -24 -12 -41 -26z"/>
<path d="M2669 675 c17 -34 31 -51 31 -39 0 7 -9 22 -21 35 -16 19 -18 20 -10
4z"/>
<path d="M969 1933 c-13 -17 -13 -17 6 -3 11 8 22 16 24 17 2 2 0 3 -6 3 -6 0
-17 -8 -24 -17z"/>
<path d="M900 1880 c-9 -6 -10 -10 -3 -10 6 0 15 5 18 10 8 12 4 12 -15 0z"/>
<path d="M4518 2303 c7 -3 16 -2 19 1 4 3 -2 6 -13 5 -11 0 -14 -3 -6 -6z"/>
<path d="M4298 1884 c-16 -8 -28 -18 -28 -22 0 -4 -11 -19 -25 -34 -15 -17
-21 -29 -14 -33 11 -7 24 1 24 15 0 16 46 71 55 65 5 -3 11 -1 15 5 8 13 45
13 45 0 0 -5 6 -10 14 -10 7 0 25 -18 40 -40 25 -37 46 -52 46 -31 0 11 -47
69 -70 88 -20 17 -69 15 -102 -3z"/>
<path d="M4436 1877 c3 -10 9 -15 12 -12 3 3 0 11 -7 18 -10 9 -11 8 -5 -6z"/>
<path d="M4296 1841 c-14 -15 -15 -21 -4 -27 7 -4 10 -3 5 1 -4 5 0 17 10 27
9 10 14 18 11 18 -3 0 -13 -9 -22 -19z"/>
<path d="M4051 1554 c0 -11 3 -14 6 -6 3 7 2 16 -1 19 -3 4 -6 -2 -5 -13z"/>
<path d="M2018 1763 c12 -2 32 -2 45 0 12 2 2 4 -23 4 -25 0 -35 -2 -22 -4z"/>
<path d="M2030 1391 c11 -22 13 -23 22 -6 8 14 12 15 19 4 6 -9 9 -10 9 -2 0
17 -23 29 -28 14 -3 -9 -8 -9 -20 1 -14 12 -14 10 -2 -11z"/>
<path d="M2290 1763 c121 -6 370 -8 370 -1 0 3 -96 6 -212 6 -117 -1 -188 -3
-158 -5z"/>
<path d="M2528 1163 c6 -2 18 -2 25 0 6 3 1 5 -13 5 -14 0 -19 -2 -12 -5z"/>
<path d="M2378 1153 c7 -3 16 -2 19 1 4 3 -2 6 -13 5 -11 0 -14 -3 -6 -6z"/>
<path d="M2475 1150 c-3 -6 1 -7 9 -4 18 7 21 14 7 14 -6 0 -13 -4 -16 -10z"/>
<path d="M2340 1130 c0 -6 7 -10 15 -10 8 0 15 2 15 4 0 2 -7 6 -15 10 -8 3
-15 1 -15 -4z"/>
<path d="M2620 4859 c-14 -6 -45 -32 -70 -58 -40 -43 -51 -49 -98 -54 -113
-13 -176 -84 -175 -197 0 -95 20 -294 31 -321 17 -43 68 -79 112 -79 32 0 39
-4 43 -22 4 -19 5 -18 6 5 0 16 10 40 21 54 23 29 26 66 8 81 -7 5 -28 13 -45
17 -45 9 -86 60 -78 94 8 33 9 34 40 34 29 0 60 -25 78 -62 7 -14 20 -27 30
-29 15 -3 17 9 17 131 0 161 1 163 91 154 46 -5 73 -2 117 13 31 11 64 20 74
20 9 0 38 -18 63 -40 52 -45 67 -48 95 -20 28 28 35 65 21 112 -10 33 -20 43
-51 55 -24 10 -41 24 -44 37 -3 12 -15 32 -27 45 -19 20 -28 22 -66 17 -29 -4
-56 -1 -80 9 -40 17 -77 18 -113 4z"/>
<path d="M2951 4524 c0 -11 3 -14 6 -6 3 7 2 16 -1 19 -3 4 -6 -2 -5 -13z"/>
<path d="M3343 4495 c0 -27 2 -38 4 -22 2 15 2 37 0 50 -2 12 -4 0 -4 -28z"/>
<path d="M2674 4474 c-19 -15 -19 -15 1 -6 11 5 27 12 35 15 13 5 13 6 -1 6
-8 1 -24 -6 -35 -15z"/>
<path d="M2873 4483 c9 -2 23 -2 30 0 6 3 -1 5 -18 5 -16 0 -22 -2 -12 -5z"/>
<path d="M2962 4435 c0 -16 2 -22 5 -12 2 9 2 23 0 30 -3 6 -5 -1 -5 -18z"/>
<path d="M2690 4400 c0 -15 5 -20 18 -18 9 2 17 10 17 18 0 8 -8 16 -17 18
-13 2 -18 -3 -18 -18z"/>
<path d="M2872 4403 c2 -10 10 -18 18 -18 8 0 16 8 18 18 2 12 -3 17 -18 17
-15 0 -20 -5 -18 -17z"/>
<path d="M4306 4399 c-29 -42 12 -92 59 -71 33 15 41 37 25 68 -17 31 -63 33
-84 3z m62 -4 c21 -15 21 -17 6 -40 -16 -24 -42 -37 -28 -13 5 8 2 9 -9 5 -10
-3 -17 -5 -17 -3 0 3 -3 11 -6 20 -4 12 0 16 17 17 18 1 19 3 6 6 -9 2 -15 9
-12 14 8 13 17 11 43 -6z"/>
<path d="M2398 4393 c7 -3 16 -2 19 1 4 3 -2 6 -13 5 -11 0 -14 -3 -6 -6z"/>
<path d="M2426 4373 c-6 -14 -5 -15 5 -6 7 7 10 15 7 18 -3 3 -9 -2 -12 -12z"/>
<path d="M2811 4377 c2 -1 13 -9 24 -17 19 -14 19 -14 6 3 -7 9 -18 17 -24 17
-6 0 -8 -1 -6 -3z"/>
<path d="M2421 4339 c-1 -9 9 -24 22 -35 22 -19 22 -19 6 1 -9 11 -19 27 -22
35 -5 13 -6 13 -6 -1z"/>
<path d="M5150 4215 l0 -65 59 0 c67 0 71 4 71 81 l0 49 -65 0 -65 0 0 -65z"/>
<path d="M5330 4215 l0 -65 65 0 65 0 0 65 0 65 -65 0 -65 0 0 -65z"/>
<path d="M5150 4025 l0 -66 63 3 62 3 3 63 3 62 -66 0 -65 0 0 -65z"/>
<path d="M5330 4025 l0 -66 63 3 62 3 3 63 3 62 -66 0 -65 0 0 -65z"/>
<path d="M2728 4063 c7 -3 16 -2 19 1 4 3 -2 6 -13 5 -11 0 -14 -3 -6 -6z"/>
<path d="M2812 3995 c0 -16 2 -22 5 -12 2 9 2 23 0 30 -3 6 -5 -1 -5 -18z"/>
<path d="M546 3983 c-11 -11 -7 -41 7 -45 18 -7 37 2 37 17 0 16 -34 38 -44
28z m32 -24 c-2 -6 -8 -10 -13 -10 -5 0 -11 4 -13 10 -2 6 4 11 13 11 9 0 15
-5 13 -11z"/>
<path d="M680 3973 c0 -5 51 -7 112 -5 205 4 225 8 56 10 -93 1 -168 -1 -168
-5z"/>
<path d="M1057 3960 c5 -19 14 -20 324 -20 312 0 319 0 319 20 0 20 -7 20
-324 20 -319 0 -324 0 -319 -20z m628 1 c-8 -14 -595 -14 -595 -1 0 6 105 10
301 10 185 0 298 -4 294 -9z"/>
<path d="M753 3943 c48 -2 126 -2 175 0 48 1 8 3 -88 3 -96 0 -136 -2 -87 -3z"/>
<path d="M2799 3903 c-13 -16 -12 -17 4 -4 16 13 21 21 13 21 -2 0 -10 -8 -17
-17z"/>
<path d="M570 3901 c0 -5 5 -13 10 -16 6 -3 10 -2 10 4 0 5 -4 13 -10 16 -5 3
-10 2 -10 -4z"/>
<path d="M838 3902 c-150 -2 -158 -4 -158 -22 0 -19 7 -20 159 -20 88 0 162 3
164 8 3 4 2 14 -2 22 -5 13 -31 15 -163 12z"/>
<path d="M1060 3883 l0 -23 249 0 c239 0 249 1 254 20 5 19 -2 19 -249 22
l-254 3 0 -22z"/>
<path d="M540 3880 c0 -11 2 -20 4 -20 2 0 6 9 9 20 3 11 1 20 -4 20 -5 0 -9
-9 -9 -20z"/>
<path d="M2348 3893 c7 -3 16 -2 19 1 4 3 -2 6 -13 5 -11 0 -14 -3 -6 -6z"/>
<path d="M568 3863 c7 -3 16 -2 19 1 4 3 -2 6 -13 5 -11 0 -14 -3 -6 -6z"/>
<path d="M2583 3843 c15 -2 39 -2 55 0 15 2 2 4 -28 4 -30 0 -43 -2 -27 -4z"/>
<path d="M680 3803 c0 -23 1 -23 160 -23 159 0 160 0 160 23 0 22 -1 22 -160
22 -159 0 -160 0 -160 -22z"/>
<path d="M1061 3808 l-1 -28 370 0 c363 0 370 0 370 20 0 11 -4 20 -10 20 -5
0 -7 -7 -4 -15 5 -13 -38 -15 -354 -15 l-361 0 -4 23 c-4 19 -4 18 -6 -5z"/>
<path d="M540 3801 c0 -25 12 -32 30 -20 12 7 12 9 -4 9 -12 0 -16 5 -12 15 3
8 1 15 -4 15 -6 0 -10 -9 -10 -19z"/>
<path d="M575 3810 c3 -5 8 -10 11 -10 2 0 4 5 4 10 0 6 -5 10 -11 10 -5 0 -7
-4 -4 -10z"/>
<path d="M2608 3793 c12 -2 30 -2 40 0 9 3 -1 5 -23 4 -22 0 -30 -2 -17 -4z"/>
<path d="M3140 3786 c0 -2 8 -10 18 -17 15 -13 16 -12 3 4 -13 16 -21 21 -21
13z"/>
<path d="M5021 3728 c1 -55 5 -50 11 15 2 20 0 37 -4 37 -4 0 -7 -24 -7 -52z"/>
<path d="M4995 3759 c-4 -6 -5 -12 -2 -15 2 -3 7 2 10 11 7 17 1 20 -8 4z"/>
<path d="M5275 3750 c-3 -6 1 -7 9 -4 21 8 20 -5 -4 -41 -12 -16 -46 -77 -77
-135 -31 -58 -63 -114 -72 -124 -16 -19 -15 -19 12 -1 15 9 27 13 27 9 0 -5
-23 -59 -52 -121 -38 -79 -58 -112 -69 -110 -9 1 -18 -2 -20 -8 -2 -5 8 -11
24 -13 21 -3 27 1 27 15 0 21 101 233 111 233 8 0 18 -48 11 -55 -8 -8 -52
-149 -48 -153 2 -2 14 27 26 65 16 50 34 80 66 113 24 25 44 49 44 54 0 4 -16
-9 -35 -30 -19 -20 -37 -35 -39 -33 -3 2 -6 17 -8 34 -2 24 2 32 25 43 16 8
26 16 23 19 -3 3 -21 -5 -41 -17 -20 -12 -39 -19 -43 -16 -10 11 116 241 142
259 8 5 6 10 -4 17 -19 12 -27 12 -35 0z"/>
<path d="M4983 3655 c0 -33 2 -45 4 -27 2 18 2 45 0 60 -2 15 -4 0 -4 -33z"/>
<path d="M546 3684 c-7 -19 1 -34 19 -34 21 0 28 19 15 35 -16 19 -26 19 -34
-1z m34 -14 c0 -5 -7 -10 -15 -10 -8 0 -15 5 -15 10 0 6 7 10 15 10 8 0 15 -4
15 -10z"/>
<path d="M5052 3670 c0 -19 2 -27 5 -17 2 9 2 25 0 35 -3 9 -5 1 -5 -18z"/>
<path d="M5209 3683 c-13 -16 -12 -17 4 -4 9 7 17 15 17 17 0 8 -8 3 -21 -13z"/>
<path d="M680 3670 c0 -19 7 -20 165 -20 158 0 165 1 165 20 0 19 -7 20 -165
20 -158 0 -165 -1 -165 -20z m300 0 c0 -6 -53 -10 -140 -10 -87 0 -140 4 -140
10 0 6 53 10 140 10 87 0 140 -4 140 -10z"/>
<path d="M5164 3628 l-29 -33 33 29 c17 17 32 31 32 33 0 8 -8 1 -36 -29z"/>
<path d="M5276 3614 c-4 -14 -5 -28 -3 -31 3 -2 8 8 11 23 4 14 5 28 3 31 -3
2 -8 -8 -11 -23z"/>
<path d="M5061 3604 c0 -11 3 -14 6 -6 3 7 2 16 -1 19 -3 4 -6 -2 -5 -13z"/>
<path d="M552 3579 c-10 -16 -10 -24 -2 -35 10 -11 14 -11 26 1 17 17 18 29 1
43 -10 8 -16 6 -25 -9z m28 -7 c0 -13 -12 -22 -22 -16 -10 6 -1 24 13 24 5 0
9 -4 9 -8z"/>
<path d="M5114 3568 l-19 -23 23 19 c12 11 22 21 22 23 0 8 -8 2 -26 -19z"/>
<path d="M5076 3561 c14 -51 3 -165 -19 -206 -10 -18 -12 -17 -18 15 l-6 35
-2 -42 c0 -23 4 -45 9 -48 6 -3 10 -1 10 6 0 7 17 33 37 58 20 25 27 37 15 27
l-22 -19 5 29 c12 69 11 124 -2 146 l-14 23 7 -24z"/>
<path d="M5270 3519 c0 -5 14 -9 32 -9 30 0 31 -1 12 -15 -18 -14 -17 -14 9
-4 15 7 25 14 23 16 -10 10 -76 20 -76 12z"/>
<path d="M540 3501 c-13 -25 7 -43 32 -30 24 13 23 35 -2 42 -13 3 -24 -1 -30
-12z m40 -11 c0 -5 -7 -10 -15 -10 -8 0 -15 5 -15 10 0 6 7 10 15 10 8 0 15
-4 15 -10z"/>
<path d="M4770 3453 c16 -27 50 -86 74 -133 25 -47 45 -82 45 -77 2 21 -131
257 -144 257 -2 0 9 -21 25 -47z"/>
<path d="M553 3423 c-15 -5 -17 -39 -4 -47 15 -9 45 20 38 38 -7 16 -13 18
-34 9z m27 -24 c0 -5 -7 -9 -15 -9 -15 0 -20 12 -9 23 8 8 24 -1 24 -14z"/>
<path d="M547 3329 c-13 -8 -15 -14 -7 -30 13 -23 36 -25 44 -2 10 24 -14 45
-37 32z m33 -19 c0 -5 -7 -10 -15 -10 -8 0 -15 5 -15 10 0 6 7 10 15 10 8 0
15 -4 15 -10z"/>
<path d="M677 3310 c5 -19 14 -20 259 -20 247 0 254 1 254 20 0 11 -4 20 -10
20 -5 0 -7 -7 -4 -15 5 -13 -25 -15 -240 -15 -212 0 -246 2 -246 15 0 8 -4 15
-9 15 -5 0 -7 -9 -4 -20z"/>
<path d="M1883 3283 c9 -2 23 -2 30 0 6 3 -1 5 -18 5 -16 0 -22 -2 -12 -5z"/>
<path d="M2201 3264 c0 -11 3 -14 6 -6 3 7 2 16 -1 19 -3 4 -6 -2 -5 -13z"/>
<path d="M547 3243 c-4 -3 -7 -15 -7 -25 0 -23 38 -25 47 -2 8 21 -24 43 -40
27z m25 -18 c0 -5 -5 -11 -11 -13 -6 -2 -11 4 -11 13 0 9 5 15 11 13 6 -2 11
-8 11 -13z"/>
<path d="M1813 3233 c20 -2 54 -2 75 0 20 2 3 4 -38 4 -41 0 -58 -2 -37 -4z"/>
<path d="M4890 3215 c0 -8 7 -15 16 -15 14 0 14 3 4 15 -7 8 -14 15 -16 15 -2
0 -4 -7 -4 -15z"/>
<path d="M4980 3216 c0 -9 5 -16 10 -16 6 0 10 4 10 9 0 6 -4 13 -10 16 -5 3
-10 -1 -10 -9z"/>
<path d="M5130 3215 c-10 -12 -10 -15 4 -15 9 0 16 7 16 15 0 8 -2 15 -4 15
-2 0 -9 -7 -16 -15z"/>
<path d="M2191 3204 c0 -11 3 -14 6 -6 3 7 2 16 -1 19 -3 4 -6 -2 -5 -13z"/>
<path d="M3194 3168 l-29 -33 33 29 c17 17 32 31 32 33 0 8 -8 1 -36 -29z"/>
<path d="M557 3182 c-12 -2 -17 -11 -15 -24 3 -24 37 -33 44 -13 8 20 -9 41
-29 37z m23 -21 c0 -5 -7 -11 -15 -15 -9 -3 -15 0 -15 9 0 8 7 15 15 15 8 0
15 -4 15 -9z"/>
<path d="M2080 3167 c0 -2 15 -16 33 -33 l32 -29 -29 33 c-28 30 -36 37 -36
29z"/>
<path d="M3269 3129 l-44 -41 48 38 c26 21 47 40 47 41 0 8 -11 0 -51 -38z"/>
<path d="M3146 3120 c8 -43 14 -51 14 -19 0 13 -5 31 -10 39 -7 11 -8 5 -4
-20z"/>
<path d="M2175 3114 c-4 -16 -8 -35 -11 -41 -2 -7 0 -13 5 -13 5 0 11 17 13
38 6 45 1 55 -7 16z"/>
<path d="M3160 3050 c0 -11 4 -20 9 -20 5 0 7 9 4 20 -3 11 -7 20 -9 20 -2 0
-4 -9 -4 -20z"/>
<path d="M2161 3024 c0 -11 3 -14 6 -6 3 7 2 16 -1 19 -3 4 -6 -2 -5 -13z"/>
<path d="M2188 3013 c6 -2 18 -2 25 0 6 3 1 5 -13 5 -14 0 -19 -2 -12 -5z"/>
<path d="M2288 3003 c12 -2 30 -2 40 0 9 3 -1 5 -23 4 -22 0 -30 -2 -17 -4z"/>
<path d="M2393 2993 c9 -2 23 -2 30 0 6 3 -1 5 -18 5 -16 0 -22 -2 -12 -5z"/>
<path d="M2588 2993 c6 -2 18 -2 25 0 6 3 1 5 -13 5 -14 0 -19 -2 -12 -5z"/>
<path d="M2508 2983 c6 -2 18 -2 25 0 6 3 1 5 -13 5 -14 0 -19 -2 -12 -5z"/>
<path d="M3317 2899 c7 -7 15 -10 18 -7 3 3 -2 9 -12 12 -14 6 -15 5 -6 -5z"/>
<path d="M2758 2893 c7 -3 16 -2 19 1 4 3 -2 6 -13 5 -11 0 -14 -3 -6 -6z"/>
<path d="M2790 2850 c8 -5 20 -10 25 -10 6 0 3 5 -5 10 -8 5 -19 10 -25 10 -5
0 -3 -5 5 -10z"/>
<path d="M2533 2823 c9 -2 25 -2 35 0 9 3 1 5 -18 5 -19 0 -27 -2 -17 -5z"/>
<path d="M2453 2813 c9 -2 23 -2 30 0 6 3 -1 5 -18 5 -16 0 -22 -2 -12 -5z"/>
<path d="M5370 1831 c0 -6 4 -13 10 -16 6 -3 7 1 4 9 -7 18 -14 21 -14 7z"/>
<path d="M5288 1482 c-16 -15 -28 -31 -28 -35 0 -5 -7 -15 -15 -24 -8 -8 -13
-19 -10 -24 11 -17 25 -9 36 19 14 36 48 72 69 72 15 0 37 -34 56 -85 6 -17 8
-18 11 -3 2 9 -5 38 -16 63 -17 38 -24 45 -48 44 -16 0 -39 -11 -55 -27z"/>
<path d="M5535 1409 c-4 -6 -5 -12 -2 -15 2 -3 7 2 10 11 7 17 1 20 -8 4z"/>
<path d="M5752 815 c0 -24 35 -166 36 -145 1 8 -7 49 -17 90 -11 41 -19 66
-19 55z"/>
<path d="M5544 781 c-28 -17 -94 -91 -94 -105 0 -3 7 -6 15 -6 8 0 15 7 15 16
0 10 6 14 15 11 8 -4 17 -1 21 5 4 7 3 8 -4 4 -29 -18 -8 14 27 42 39 31 80
44 65 20 -5 -7 -3 -8 5 -4 19 12 51 -23 83 -89 16 -33 26 -51 24 -40 -3 11 -7
32 -10 46 -7 42 -48 98 -80 109 -39 14 -46 13 -82 -9z"/>
<path d="M5791 635 c0 -11 3 -37 8 -58 5 -21 5 -39 0 -43 -5 -3 -9 -11 -9 -17
0 -7 4 -6 10 3 8 13 10 12 11 -5 1 -11 1 -30 0 -42 -1 -13 3 -23 9 -23 5 0 10
8 10 18 -1 28 -38 189 -39 167z"/>
<path d="M5771 614 c0 -11 3 -14 6 -6 3 7 2 16 -1 19 -3 4 -6 -2 -5 -13z"/>
</g>
</svg>
